<svg id="图层_1" data-name="图层 1" xmlns="http://www.w3.org/2000/svg" xmlns:xlink="http://www.w3.org/1999/xlink" viewBox="0 0 302 227"><defs><style>.cls-1,.cls-2{fill:none;}.cls-2,.cls-3{clip-rule:evenodd;}.cls-11,.cls-14,.cls-3,.cls-4{fill:#fff;}.cls-5{clip-path:url(#clip-path);}.cls-6{clip-path:url(#clip-path-2);}.cls-7{fill:url(#未命名的渐变_11);}.cls-8{font-size:16px;fill:#869abb;font-family:SourceHanSansCN-Regular-GBpc-EUC-H, Source Han Sans CN;}.cls-9{opacity:0.3;fill:url(#未命名的渐变_17);}.cls-10{opacity:0.66;}.cls-11{fill-rule:evenodd;}.cls-12{clip-path:url(#clip-path-3);}.cls-13{clip-path:url(#clip-path-4);}.cls-14{opacity:0.66;}.cls-15{opacity:0.7;isolation:isolate;}.cls-16{fill:url(#未命名的渐变_10);}.cls-17{fill:url(#未命名的渐变_10-2);}</style><clipPath id="clip-path"><rect class="cls-1" x="-1065.99" y="462" width="72" height="72"/></clipPath><clipPath id="clip-path-2"><path class="cls-2" d="M-1036.93,484.71V480l-12.61,0,0,37.13h39.07V484.71Zm-1.66,29V508q.17,0,10.57,0a4.63,4.63,0,0,0,4.63-4.63,4.63,4.63,0,0,0-4.63-4.63l-4.93.13,2.14,2.14-2.84,2.84-5.27-5.41-2.84-2.84,2.84-2.84,5.27-5.27,2.84,2.84-2.42,2.42h5.21a10.61,10.61,0,0,1,10.61,10.6A10.42,10.42,0,0,1-1028,513.77Z"/></clipPath><linearGradient id="未命名的渐变_11" x1="151" y1="227" x2="151" gradientUnits="userSpaceOnUse"><stop offset="0.33" stop-color="#ecf7fa"/><stop offset="1" stop-color="#d1e4ff"/></linearGradient><linearGradient id="未命名的渐变_17" x1="151" y1="227" x2="151" y2="159" gradientUnits="userSpaceOnUse"><stop offset="0" stop-color="#21539b" stop-opacity="0.7"/><stop offset="1" stop-color="#81b4ff" stop-opacity="0.23"/></linearGradient><clipPath id="clip-path-3"><path class="cls-3" d="M171.35,164.21h7.24c.29,0,.58,0,.86,0,0,0,.09,0,.09-.08s0-.2,0-.24a3.32,3.32,0,0,0-.48-.28l-4.5-2.41c-.2-.11-.39-.25-.84-.53A3.27,3.27,0,0,1,175,161c1.58.84,3.19,1.66,4.78,2.5a5.86,5.86,0,0,0,2.89.68c3.23,0,6.46,0,9.7,0,.29,0,.58,0,.87,0a.26.26,0,0,0,.19-.13c0-.07,0-.2-.08-.22-.62-.24-1.24-.47-1.87-.7-2.46-.89-4.93-1.77-7.34-2.81.46.13.92.24,1.37.39l5.54,1.9,3.23,1.15a7.92,7.92,0,0,0,2.68.45c5.79,0,11.58,0,17.37,0,.14,0,.28,0,.44,0,.08-.42-.3-.4-.53-.45-2.29-.55-4.58-1.07-6.87-1.61s-4.38-1.06-6.57-1.6c-.08,0-.14-.1-.24-.19a1.53,1.53,0,0,1,.41,0l6.71,1.53,10,2.26a5.33,5.33,0,0,0,1.15.11l27.5,0A1,1,0,0,0,247,164a43.09,43.09,0,0,0-5-.87c-1.7-.3-3.42-.57-5.13-.85s-3.32-.55-5-.81-3.29-.49-5-.82a.5.5,0,0,1,.55-.15l3.27.49,3.26.52c2.8.44,5.59.87,8.39,1.3s5.8.86,8.7,1.27a12.32,12.32,0,0,0,1.73.08l41.1,0a5.89,5.89,0,0,0,1.6-.15c-.7-.12-1.4-.29-2.11-.36-3-.32-6-.61-9.05-.93s-6-.68-9-1c-2.2-.24-4.41-.45-6.61-.67a3.45,3.45,0,0,1-1.25-.24c.52-.27.84.22,1.27.19s.87,0,1.29-.06c.69-.07,1.26.4,2,.3a3.8,3.8,0,0,1,1.85.19,1.85,1.85,0,0,0,.57,0,40.67,40.67,0,0,1,5,.48c1,.16,2.11.2,3.16.27,2.16.16,4.3.46,6.46.64s4.3.48,6.46.69c1.63.16,3.27.26,4.9.41.52,0,1,.15,1.55.23v.53a16,16,0,0,0-3.29-.14q-13.31,0-26.63,0l-13.6,0a2.19,2.19,0,0,0-1.28.18c.29.39.76.32,1.16.39l16.69,2.58,9.71,1.48L302,172v.53c-.62,0-1.24.1-1.86.1h-43a1.83,1.83,0,0,0-1.13.16c.16.34.53.35.84.42l6.45,1.5L276,177.62l16.12,3.76,9.92,2.34v1.07c-.37-.33-.82-.15-1.23-.15-10.88,0-21.76-.1-32.64.07-2.7,0-5.39,0-8.09,0-.33,0-.67,0-1,.06a9,9,0,0,0-3.58.07,15.85,15.85,0,0,0,3.64,1.41,1.57,1.57,0,0,0,.25.13l16.75,5.83,11.07,3.86,14.31,5c.17.06.34.16.52,0v1.6l-2,0h-41.4c-.53,0-1.06,0-1.59.06-.12,0-.29.08-.28.25a.52.52,0,0,0,.12.35,4.22,4.22,0,0,0,.71.45l14.25,7.4,11.48,5.95,11.6,6,6.17,3.21a1.82,1.82,0,0,1,.36.21.28.28,0,0,1,.08.24.25.25,0,0,1-.19.15c-1,0-1.93,0-2.89,0a2.65,2.65,0,0,1-1.2-.44l-7.5-4-8-4.27L269.92,212l-13.66-7.26-2.87-1.55a4.11,4.11,0,0,0-2.06-.51q-17.44,0-34.89,0c-.46,0-1.12-.19-1.33.23s.42.82.78,1.13q5.22,4.52,10.48,9l6.16,5.26,8.9,7.63a7.22,7.22,0,0,1,.62.56.53.53,0,0,1,.09.36s-.15.11-.24.11l-1.45,0c-1.92,0-1.91,0-3.26-1.23L219.65,210c-2.42-2.17-4.87-4.32-7.26-6.51a3.11,3.11,0,0,0-2.3-.87q-17.51,0-35,0a10.76,10.76,0,0,0-1.15.06.44.44,0,0,0-.4.59c.23.68.49,1.35.75,2q3.18,7.87,6.38,15.74c.64,1.58,1.3,3.16,2,4.74a4.29,4.29,0,0,1,.27.76.31.31,0,0,1-.31.38q-1.59,0-3.18,0a.56.56,0,0,1-.51-.41l-.28-.76-6.92-19.39c-.36-1-.74-2-1.09-3a1,1,0,0,0-1.07-.7c-.34,0-.68,0-1,0H133.9c-2.05,0-1.77-.14-2.39,1.59-2.09,5.83-4.15,11.66-6.23,17.49-.51,1.44-1,2.87-1.55,4.3-.34.92-.35.92-1.45.93-.63,0-1.25,0-1.88,0-.91,0-1-.12-.65-1,.77-1.92,1.56-3.83,2.33-5.75l6-14.74c.3-.75.6-1.5.87-2.26a.41.41,0,0,0-.41-.56c-.38,0-.77,0-1.15,0H92.48c-.24,0-.48,0-.72,0a1.54,1.54,0,0,0-1.18.41l-.42.37-10.37,9.3q-7.53,6.73-15.07,13.47a2.4,2.4,0,0,1-2,.77c-.14,0-.29,0-.43,0a6.09,6.09,0,0,1-2-.13c.15-.72.85-1,1.35-1.43q6-5.2,12.05-10.38L86.6,203.94c.31-.26.83-.47.69-.92s-.81-.35-1.24-.36c-4.15,0-8.3,0-12.45,0-7.43,0-14.86,0-22.29,0a5,5,0,0,0-2.47.6q-6,3.22-12,6.42l-22.56,12c-2.84,1.51-5.69,3-8.5,4.57a5.34,5.34,0,0,1-3.14.75c-.62,0-1.24,0-2,0a1.53,1.53,0,0,1,.9-.73l10.85-5.62,12.35-6.42,15.52-8,4.53-2.36a3.79,3.79,0,0,0,.37-.2c.26-.17.7-.27.62-.64s-.52-.29-.83-.31c-.48,0-1,0-1.45,0H2.83a13.19,13.19,0,0,1-2.59-.11c-.07,0-.16.08-.24.13v-1.6c.3.37.62.1.9,0l21.5-7.49L38.48,188l7-2.46c.36-.13.69-.3,1-.46,0,0,0-.08,0-.12s0-.18-.11-.2a5.19,5.19,0,0,0-.7-.09H42.15l-41.65,0a.58.58,0,0,0-.5.19v-1.07c.09,0,.2.08.27.05,2.15-.67,4.37-1.08,6.56-1.59l12.33-2.85L38,174.92c2.19-.51,4.41-.93,6.55-1.59a1.2,1.2,0,0,0,.28,0,3.75,3.75,0,0,0,1.56-.47c-.48-.49-1.11-.2-1.66-.23a8.5,8.5,0,0,0-2.25.07c-.53,0-1.05-.08-1.58-.08H2.32c-.48,0-1,.05-1.44.08-.28-.12-.53-.38-.89-.19V172a1.22,1.22,0,0,0,.4.07c.76-.13,1.5-.31,2.26-.43l18.25-2.83,16-2.45,7.41-1.15c.29,0,.62,0,.79-.36a2.07,2.07,0,0,0-1.19-.17l-24.44,0-19.23,0c-.08,0-.15.1-.23.15V164a.53.53,0,0,0,.51.17c2.91-.38,5.86-.46,8.77-.88,1.38-.2,2.78-.24,4.17-.37s2.77-.32,4.16-.43c3.12-.23,6.19-.89,9.33-.93a3,3,0,0,1,.82.07c-2.25.47-4.55.57-6.83.85s-4.69.52-7,.78-4.59.51-6.87.93c.45,0,.89.05,1.34.05l41.26,0a12.71,12.71,0,0,0,2.15-.2c1.42-.24,2.86-.37,4.27-.59,1.89-.29,3.77-.65,5.66-.95Q69.84,161.2,78,160a2.88,2.88,0,0,1,.57-.06c.13,0,.35.07.37.14.1.36-.22.16-.35.18l-6.27,1-11,1.75c-1.65.26-3.31.5-5,.75a1.05,1.05,0,0,0-.27.09c-.12.06-.28.11-.23.27s.13.11.2.12a3.24,3.24,0,0,0,.43,0l26.78,0A7.44,7.44,0,0,0,85,164c4.53-1.07,9.07-2.11,13.6-3.17l4.76-1.13a.78.78,0,0,1,.77.16c-.39.13-.71.26-1.05.34L91.16,163l-3.08.73c-.18,0-.41.11-.37.31s.32.13.49.13h14.62c1,0,1.93-.05,2.89-.06ZM275,201.31h20.83c.43,0,.86,0,1.3-.05,0,0,.06-.05.08-.08s.07-.18,0-.23-.51-.24-.77-.34l-13.62-4.88L252.73,185a6.15,6.15,0,0,0-2.11-.37H222.55c-.33,0-.67,0-1,.05a.25.25,0,0,0-.16.16.25.25,0,0,0,.1.21c.74.41,1.49.82,2.24,1.21l13.87,7.18q6.93,3.59,13.85,7.21a5.62,5.62,0,0,0,2.74.66C261.13,201.29,268.07,201.31,275,201.31Zm-247.43,0c6.9,0,13.79,0,20.69,0a5.52,5.52,0,0,0,2.74-.66c1.79-1,3.61-1.87,5.42-2.81l14.1-7.34,9.83-5.09.13-.06c.19-.12.49-.17.46-.44s-.36-.22-.57-.24-.68,0-1,0H51.89a5.77,5.77,0,0,0-2,.28L35.75,190l-25.48,9.12-4.44,1.6c-.18.07-.35.2-.28.39s.22.16.35.17c.43,0,.87,0,1.3,0Zm203.47,0h17.07c.29,0,.58,0,.87,0a.27.27,0,0,0,.19-.16.25.25,0,0,0-.07-.23c-.24-.15-.49-.28-.74-.42L233,192.26c-4.42-2.36-8.86-4.7-13.27-7.07a4.67,4.67,0,0,0-2.32-.58q-11.07,0-22.13,0c-.39,0-.77,0-1.16,0-.13,0-.32,0-.31.21a.56.56,0,0,0,.13.35c.23.23.48.44.73.65l16.94,14.53c.21.18.43.35.64.54a1.5,1.5,0,0,0,1,.38h17.79Zm-79.92,0h10.57c2.36,0,4.73,0,7.09,0,.89,0,1-.16.73-1-.05-.17-.12-.34-.18-.51l-3.39-9.5c-.57-1.61-1.13-3.21-1.71-4.82-.28-.77-.36-.81-1.24-.84h-23.3c-1.28,0-1.28,0-1.7,1.19l-4.39,12.43c-.28.8-.57,1.6-.83,2.41a.43.43,0,0,0,.41.57c.43,0,.87,0,1.3,0Zm39.94,0h16.79c.39,0,.77,0,1.16,0a.3.3,0,0,0,.23-.49c-.26-.26-.53-.52-.8-.77L203,195.07c-3.6-3.22-7.21-6.44-10.79-9.68a2.46,2.46,0,0,0-2-.77,3.7,3.7,0,0,1-.43,0H168c-.39,0-.77,0-1.16,0-.69,0-.83.22-.63.85.05.17.12.34.19.51l5.71,14c.56,1.37.45,1.29,2.07,1.29Zm-79.73,0h16.79c1.71,0,1.57.2,2.25-1.45q2.36-5.74,4.69-11.49c.41-1,.81-2,1.19-3,.18-.46,0-.65-.53-.68-.34,0-.68,0-1,0h-23a1.43,1.43,0,0,0-1,.39c-.17.16-.35.31-.52.46L93.85,200.06c-.28.25-.53.51-.79.78s0,.38.2.39c.43,0,.87,0,1.3,0Zm-40,0c5.74,0,11.48,0,17.22,0a2.82,2.82,0,0,0,2.07-.72c1-.94,2.11-1.83,3.17-2.73l7.64-6.53q3.39-2.91,6.76-5.83c.19-.17.52-.32.35-.65s-.41-.18-.64-.19H91.41c-2.22,0-4.44,0-6.66,0a3.58,3.58,0,0,0-1.78.44c-3,1.63-6.1,3.23-9.15,4.86l-13.89,7.43L54,200.46a5.21,5.21,0,0,0-.6.37.24.24,0,0,0-.07.22.26.26,0,0,0,.18.16c.43,0,.86.05,1.29.05ZM28.45,183.68h4.63c5.31,0,10.61,0,15.91,0a8.53,8.53,0,0,0,3.24-.51c1.33-.52,2.7-.95,4.06-1.42l17.85-6.23,6.35-2.22a5,5,0,0,0,.65-.28.19.19,0,0,0-.07-.37c-.33,0-.67,0-1,0H51.72a7.3,7.3,0,0,0-1.72.19l-9.52,2.25L24.09,179,7,183a5.57,5.57,0,0,0-.69.21.27.27,0,0,0-.15.2.23.23,0,0,0,.15.18c.48,0,1,.07,1.44.07Zm245.47,0h21.28c.33,0,.87.1.91-.19s-.53-.4-.86-.48l-23.82-5.68q-9.25-2.2-18.5-4.41a10.84,10.84,0,0,0-2.57-.31H222.71l-1.3,0a.49.49,0,0,0-.26.08s-.08.17,0,.21a1.52,1.52,0,0,0,.74.36L232,176.82q9.27,3.23,18.54,6.48a7,7,0,0,0,2.4.39Q263.42,183.67,273.91,183.68ZM296,171.83a6.72,6.72,0,0,0-2.1-.49l-12.55-2-17-2.71c-3.14-.5-6.29-.93-9.41-1.47a32.32,32.32,0,0,0-5.59-.57q-13.24,0-26.48,0a6.5,6.5,0,0,0-.72,0c-.11,0-.3,0-.26.2a.3.3,0,0,0,.17.18c.27.09.55.17.83.23l11.36,2.64q8.13,1.89,16.26,3.79a9.94,9.94,0,0,0,2.28.27h41.82A2.91,2.91,0,0,0,296,171.83ZM69.2,183.68c4.39,0,8.78,0,13.16,0a4.78,4.78,0,0,0,2.33-.55q9.25-4.82,18.53-9.61a9.64,9.64,0,0,0,.85-.5.24.24,0,0,0,.06-.23.27.27,0,0,0-.2-.15c-.43,0-.86,0-1.3,0-5.55,0-11.09,0-16.64,0a9,9,0,0,0-3.23.56c-3.67,1.35-7.36,2.66-11,4l-16,5.73c-.34.12-.95.14-.87.53s.71.27,1.09.27C60.33,183.69,64.77,183.68,69.2,183.68Zm164,0h13.17a3.47,3.47,0,0,0,1.28-.09s.11-.05.11-.08,0-.21,0-.24a6.43,6.43,0,0,0-.78-.34l-10-3.57q-8.84-3.16-17.67-6.32a7.24,7.24,0,0,0-2.53-.44c-5.69,0-11.38,0-17.08,0l-1.16,0a.44.44,0,0,0-.26.09c-.05,0-.08.2-.06.22a8.88,8.88,0,0,0,.84.51q9.33,4.84,18.66,9.68a4.79,4.79,0,0,0,2.33.56C224.42,183.67,228.81,183.68,233.2,183.68ZM6.43,171.92c.6,0,.89.09,1.17.08,1.3,0,2.6,0,3.9,0h38a11.08,11.08,0,0,0,2.57-.29c6.3-1.49,12.62-2.94,18.93-4.4l8.41-2a7.07,7.07,0,0,0,.82-.25.26.26,0,0,0,.13-.21c0-.05-.12-.14-.18-.15-.38,0-.77,0-1.15,0-8,0-15.91,0-23.87,0a44.61,44.61,0,0,0-8,.58c-5.25.94-10.54,1.7-15.81,2.53L8.11,171.39A3.94,3.94,0,0,0,6.43,171.92Zm118.28,11.8h10.55l1.16,0a.68.68,0,0,0,.66-.43c.14-.33.3-.65.44-1q1.65-4.05,3.29-8.11c.63-1.55.61-1.57-1.12-1.57-4.58,0-9.15,0-13.73,0a3.32,3.32,0,0,0-2.44.9c-3.43,3.11-6.9,6.2-10.35,9.29a6,6,0,0,0-.49.49.27.27,0,0,0,.18.41c.43,0,.86,0,1.3,0Zm26.44,0h11.43c.85,0,1-.16.74-.87-.3-.89-.63-1.77-.95-2.66-.79-2.19-1.6-4.38-2.35-6.58-.33-1-.57-1-1.56-1H144.14c-.29,0-.58,0-.87,0a.73.73,0,0,0-.67.43c-.11.24-.2.5-.29.75l-3.12,8.74c-.4,1.12-.36,1.17,1,1.17Zm26.48,0h10.71c.38,0,.77,0,1.15-.05a.28.28,0,0,0,.17-.42c-.29-.3-.58-.59-.89-.87-3.28-2.95-6.59-5.87-9.84-8.85a3.42,3.42,0,0,0-2.56-.94c-4.53,0-9.07,0-13.6,0-1.78,0-1.79,0-1.2,1.51,1,2.5,2,5,3,7.5.2.5.43,1,.6,1.5a.88.88,0,0,0,1,.61h11.43Zm26.46,0c3.33,0,6.66,0,10,0,.61,0,1.32.31,1.86-.26-.3-.56-1-.64-1.46-1a2.48,2.48,0,0,0-.38-.2l-8.9-4.73-8-4.28a4.41,4.41,0,0,0-2.18-.6c-4.78,0-9.55,0-14.33,0a7,7,0,0,0-.86.06.19.19,0,0,0-.14.3,1.88,1.88,0,0,0,.39.39c3.7,3.18,7.42,6.36,11.11,9.56a3.07,3.07,0,0,0,2.21.77C197,183.66,200.52,183.68,204.09,183.68Zm-105.79,0h5.2c1.88,0,3.76,0,5.64,0a2.66,2.66,0,0,0,2-.76c.6-.57,1.27-1.09,1.9-1.63l9-7.71a3.79,3.79,0,0,0,.57-.6.19.19,0,0,0-.14-.3,5.64,5.64,0,0,0-.86-.07c-4.77,0-9.54,0-14.31,0a3.85,3.85,0,0,0-1.91.48c-2.07,1.13-4.16,2.23-6.25,3.34l-11,5.85c-.54.29-1.08.58-1.61.89a.36.36,0,0,0-.16.32c0,.08.22.16.34.17.43,0,.87,0,1.3,0ZM247.4,172a1.41,1.41,0,0,0-1.1-.63l-8.82-2.09-18.33-4.4a10.88,10.88,0,0,0-2.58-.25l-17.07,0c-.36,0-1-.14-1,.17-.11.5.56.49.92.62,5.85,2.06,11.72,4.08,17.57,6.15a7.4,7.4,0,0,0,2.53.42h27.9ZM69.62,172h0c4.48,0,9,0,13.45,0a6.87,6.87,0,0,0,2.39-.42c3.37-1.2,6.76-2.37,10.14-3.55l7.57-2.64a1.46,1.46,0,0,0,.73-.4s0-.22,0-.23a2.87,2.87,0,0,0-.7-.12H85.38a8.77,8.77,0,0,0-3,.44,9,9,0,0,1-1,.27L70.09,168,56,171.4a4.48,4.48,0,0,0-.68.23c-.07,0-.11.13-.14.2s0,.14.16.14c.34,0,.67,0,1,0Zm136.13,0h8c.38,0,.77,0,1.15,0,.07,0,.14-.08.19-.14s0-.18-.08-.23c-.3-.14-.6-.29-.91-.4l-6.47-2.32c-3.59-1.29-7.18-2.57-10.77-3.87a6.41,6.41,0,0,0-2.25-.39H184.44c-.29,0-.58,0-.87,0s-.52,0-.56.27.17.3.33.39l.38.19c3.86,2,7.74,4,11.58,6a4.14,4.14,0,0,0,2.05.49C200.15,172,202.95,172,205.74,172ZM96.52,172h0c2.89,0,5.79,0,8.68,0a3.66,3.66,0,0,0,1.78-.42c3.94-2.07,7.9-4.11,11.84-6.16a4.35,4.35,0,0,0,.59-.37.24.24,0,0,0,.05-.23.28.28,0,0,0-.2-.14,5.94,5.94,0,0,0-.72,0l-10.85,0a6,6,0,0,0-2.11.4c-2.06.76-4.13,1.49-6.19,2.23L87.8,171.4a3,3,0,0,0-.49.26s0,.07,0,.11,0,.18.13.18c.38,0,.77,0,1.15,0Zm54.6,0h4.48c1,0,2,0,3,0,.62,0,.74-.17.54-.76-.68-1.94-1.4-3.88-2.06-5.82a1,1,0,0,0-1.15-.78q-4.77,0-9.54,0a1,1,0,0,0-1.13.8c-.65,1.91-1.35,3.8-2,5.7,0,.13-.1.25-.13.38a.36.36,0,0,0,.34.47c.34,0,.67,0,1,0Zm17.54,0h6.65c.38,0,.77,0,1.15-.06a.28.28,0,0,0,.16-.43q-.23-.25-.49-.49c-2.14-1.92-4.3-3.82-6.42-5.75a2.28,2.28,0,0,0-1.66-.64c-3,0-6.07,0-9.1,0a4.34,4.34,0,0,0-.57,0,.41.41,0,0,0-.38.58,5.77,5.77,0,0,0,.22.63l1.89,4.61c.14.33.27.67.42,1a.83.83,0,0,0,.77.51h7.37Zm-35.18,0c2.41,0,4.81,0,7.22,0a1.27,1.27,0,0,0,1.39-.89c.73-1.88,1.49-3.75,2.23-5.62a1.79,1.79,0,0,0,.14-.51.28.28,0,0,0-.22-.3,3.1,3.1,0,0,0-.57-.07c-3.08,0-6.16,0-9.24,0a2.44,2.44,0,0,0-1.77.72c-2,1.83-4.09,3.63-6.13,5.45a10.23,10.23,0,0,0-.76.79c-.12.13,0,.38.21.39.38,0,.77,0,1.15,0Zm52.8,0h6.36c.38,0,.77,0,1.15-.05a.27.27,0,0,0,.18-.16.25.25,0,0,0-.06-.23c-.31-.21-.63-.41-1-.58L181.82,165a3.36,3.36,0,0,0-1.65-.4l-8.82,0a6.24,6.24,0,0,0-.72,0,.37.37,0,0,0-.23.12c-.11.13,0,.25.09.35a1.33,1.33,0,0,0,.2.19c2.36,2,4.73,4,7.08,6.09a2.41,2.41,0,0,0,1.7.58C181.74,172,184,172,186.27,172ZM116,172c2.17,0,4.34,0,6.51,0a3.32,3.32,0,0,0,2.45-.88c2.13-1.87,4.29-3.71,6.44-5.56a6.26,6.26,0,0,0,.49-.49.25.25,0,0,0-.16-.4,2.86,2.86,0,0,0-.43,0l-9.26,0a3,3,0,0,0-1.5.42c-.7.39-1.42.76-2.13,1.13l-9.64,5.14a1.85,1.85,0,0,0-.36.22.29.29,0,0,0-.09.23.25.25,0,0,0,.16.18c.33,0,.67.05,1,.05Z"/></clipPath><clipPath id="clip-path-4"><rect class="cls-4" y="159.66" width="302" height="68"/></clipPath><linearGradient id="未命名的渐变_10" x1="146.08" y1="109.5" x2="146.08" y2="39.5" gradientUnits="userSpaceOnUse"><stop offset="0" stop-color="#81b4ff" stop-opacity="0.25"/><stop offset="1" stop-color="#21539b"/></linearGradient><linearGradient id="未命名的渐变_10-2" x1="184.17" y1="112.5" x2="184.17" y2="82.5" xlink:href="#未命名的渐变_10"/></defs><title>洞鉴5.1图标(2)</title><rect class="cls-7" width="302" height="227"/><text class="cls-8" transform="translate(39.17 142)">当前设备类型不支持全景图显示</text><rect class="cls-9" y="159" width="302" height="68"/><g class="cls-10"><path class="cls-11" d="M171.35,164.21h7.24c.29,0,.58,0,.86,0,0,0,.09,0,.09-.08s0-.2,0-.24a3.32,3.32,0,0,0-.48-.28l-4.5-2.41c-.2-.11-.39-.25-.84-.53A3.27,3.27,0,0,1,175,161c1.58.84,3.19,1.66,4.78,2.5a5.86,5.86,0,0,0,2.89.68c3.23,0,6.46,0,9.7,0,.29,0,.58,0,.87,0a.26.26,0,0,0,.19-.13c0-.07,0-.2-.08-.22-.62-.24-1.24-.47-1.87-.7-2.46-.89-4.93-1.77-7.34-2.81.46.13.92.24,1.37.39l5.54,1.9,3.23,1.15a7.92,7.92,0,0,0,2.68.45c5.79,0,11.58,0,17.37,0,.14,0,.28,0,.44,0,.08-.42-.3-.4-.53-.45-2.29-.55-4.58-1.07-6.87-1.61s-4.38-1.06-6.57-1.6c-.08,0-.14-.1-.24-.19a1.53,1.53,0,0,1,.41,0l6.71,1.53,10,2.26a5.33,5.33,0,0,0,1.15.11l27.5,0A1,1,0,0,0,247,164a43.09,43.09,0,0,0-5-.87c-1.7-.3-3.42-.57-5.13-.85s-3.32-.55-5-.81-3.29-.49-5-.82a.5.5,0,0,1,.55-.15l3.27.49,3.26.52c2.8.44,5.59.87,8.39,1.3s5.8.86,8.7,1.27a12.32,12.32,0,0,0,1.73.08l41.1,0a5.89,5.89,0,0,0,1.6-.15c-.7-.12-1.4-.29-2.11-.36-3-.32-6-.61-9.05-.93s-6-.68-9-1c-2.2-.24-4.41-.45-6.61-.67a3.45,3.45,0,0,1-1.25-.24c.52-.27.84.22,1.27.19s.87,0,1.29-.06c.69-.07,1.26.4,2,.3a3.8,3.8,0,0,1,1.85.19,1.85,1.85,0,0,0,.57,0,40.67,40.67,0,0,1,5,.48c1,.16,2.11.2,3.16.27,2.16.16,4.3.46,6.46.64s4.3.48,6.46.69c1.63.16,3.27.26,4.9.41.52,0,1,.15,1.55.23v.53a16,16,0,0,0-3.29-.14q-13.31,0-26.63,0l-13.6,0a2.19,2.19,0,0,0-1.28.18c.29.39.76.32,1.16.39l16.69,2.58,9.71,1.48L302,172v.53c-.62,0-1.24.1-1.86.1h-43a1.83,1.83,0,0,0-1.13.16c.16.34.53.35.84.42l6.45,1.5L276,177.62l16.12,3.76,9.92,2.34v1.07c-.37-.33-.82-.15-1.23-.15-10.88,0-21.76-.1-32.64.07-2.7,0-5.39,0-8.09,0-.33,0-.67,0-1,.06a9,9,0,0,0-3.58.07,15.85,15.85,0,0,0,3.64,1.41,1.57,1.57,0,0,0,.25.13l16.75,5.83,11.07,3.86,14.31,5c.17.06.34.16.52,0v1.6l-2,0h-41.4c-.53,0-1.06,0-1.59.06-.12,0-.29.08-.28.25a.52.52,0,0,0,.12.35,4.22,4.22,0,0,0,.71.45l14.25,7.4,11.48,5.95,11.6,6,6.17,3.21a1.82,1.82,0,0,1,.36.21.28.28,0,0,1,.08.24.25.25,0,0,1-.19.15c-1,0-1.93,0-2.89,0a2.65,2.65,0,0,1-1.2-.44l-7.5-4-8-4.27L269.92,212l-13.66-7.26-2.87-1.55a4.11,4.11,0,0,0-2.06-.51q-17.44,0-34.89,0c-.46,0-1.12-.19-1.33.23s.42.82.78,1.13q5.22,4.52,10.48,9l6.16,5.26,8.9,7.63a7.22,7.22,0,0,1,.62.56.53.53,0,0,1,.09.36s-.15.11-.24.11l-1.45,0c-1.92,0-1.91,0-3.26-1.23L219.65,210c-2.42-2.17-4.87-4.32-7.26-6.51a3.11,3.11,0,0,0-2.3-.87q-17.51,0-35,0a10.76,10.76,0,0,0-1.15.06.44.44,0,0,0-.4.59c.23.68.49,1.35.75,2q3.18,7.87,6.38,15.74c.64,1.58,1.3,3.16,2,4.74a4.29,4.29,0,0,1,.27.76.31.31,0,0,1-.31.38q-1.59,0-3.18,0a.56.56,0,0,1-.51-.41l-.28-.76-6.92-19.39c-.36-1-.74-2-1.09-3a1,1,0,0,0-1.07-.7c-.34,0-.68,0-1,0H133.9c-2.05,0-1.77-.14-2.39,1.59-2.09,5.83-4.15,11.66-6.23,17.49-.51,1.44-1,2.87-1.55,4.3-.34.92-.35.92-1.45.93-.63,0-1.25,0-1.88,0-.91,0-1-.12-.65-1,.77-1.92,1.56-3.83,2.33-5.75l6-14.74c.3-.75.6-1.5.87-2.26a.41.41,0,0,0-.41-.56c-.38,0-.77,0-1.15,0H92.48c-.24,0-.48,0-.72,0a1.54,1.54,0,0,0-1.18.41l-.42.37-10.37,9.3q-7.53,6.73-15.07,13.47a2.4,2.4,0,0,1-2,.77c-.14,0-.29,0-.43,0a6.09,6.09,0,0,1-2-.13c.15-.72.85-1,1.35-1.43q6-5.2,12.05-10.38L86.6,203.94c.31-.26.83-.47.69-.92s-.81-.35-1.24-.36c-4.15,0-8.3,0-12.45,0-7.43,0-14.86,0-22.29,0a5,5,0,0,0-2.47.6q-6,3.22-12,6.42l-22.56,12c-2.84,1.51-5.69,3-8.5,4.57a5.34,5.34,0,0,1-3.14.75c-.62,0-1.24,0-2,0a1.53,1.53,0,0,1,.9-.73l10.85-5.62,12.35-6.42,15.52-8,4.53-2.36a3.79,3.79,0,0,0,.37-.2c.26-.17.7-.27.62-.64s-.52-.29-.83-.31c-.48,0-1,0-1.45,0H2.83a13.19,13.19,0,0,1-2.59-.11c-.07,0-.16.08-.24.13v-1.6c.3.37.62.1.9,0l21.5-7.49L38.48,188l7-2.46c.36-.13.69-.3,1-.46,0,0,0-.08,0-.12s0-.18-.11-.2a5.19,5.19,0,0,0-.7-.09H42.15l-41.65,0a.58.58,0,0,0-.5.19v-1.07c.09,0,.2.08.27.05,2.15-.67,4.37-1.08,6.56-1.59l12.33-2.85L38,174.92c2.19-.51,4.41-.93,6.55-1.59a1.2,1.2,0,0,0,.28,0,3.75,3.75,0,0,0,1.56-.47c-.48-.49-1.11-.2-1.66-.23a8.5,8.5,0,0,0-2.25.07c-.53,0-1.05-.08-1.58-.08H2.32c-.48,0-1,.05-1.44.08-.28-.12-.53-.38-.89-.19V172a1.22,1.22,0,0,0,.4.07c.76-.13,1.5-.31,2.26-.43l18.25-2.83,16-2.45,7.41-1.15c.29,0,.62,0,.79-.36a2.07,2.07,0,0,0-1.19-.17l-24.44,0-19.23,0c-.08,0-.15.1-.23.15V164a.53.53,0,0,0,.51.17c2.91-.38,5.86-.46,8.77-.88,1.38-.2,2.78-.24,4.17-.37s2.77-.32,4.16-.43c3.12-.23,6.19-.89,9.33-.93a3,3,0,0,1,.82.07c-2.25.47-4.55.57-6.83.85s-4.69.52-7,.78-4.59.51-6.87.93c.45,0,.89.05,1.34.05l41.26,0a12.71,12.71,0,0,0,2.15-.2c1.42-.24,2.86-.37,4.27-.59,1.89-.29,3.77-.65,5.66-.95Q69.84,161.2,78,160a2.88,2.88,0,0,1,.57-.06c.13,0,.35.07.37.14.1.36-.22.16-.35.18l-6.27,1-11,1.75c-1.65.26-3.31.5-5,.75a1.05,1.05,0,0,0-.27.09c-.12.06-.28.11-.23.27s.13.11.2.12a3.24,3.24,0,0,0,.43,0l26.78,0A7.44,7.44,0,0,0,85,164c4.53-1.07,9.07-2.11,13.6-3.17l4.76-1.13a.78.78,0,0,1,.77.16c-.39.13-.71.26-1.05.34L91.16,163l-3.08.73c-.18,0-.41.11-.37.31s.32.13.49.13h14.62c1,0,1.93-.05,2.89-.06ZM275,201.31h20.83c.43,0,.86,0,1.3-.05,0,0,.06-.05.08-.08s.07-.18,0-.23-.51-.24-.77-.34l-13.62-4.88L252.73,185a6.15,6.15,0,0,0-2.11-.37H222.55c-.33,0-.67,0-1,.05a.25.25,0,0,0-.16.16.25.25,0,0,0,.1.21c.74.41,1.49.82,2.24,1.21l13.87,7.18q6.93,3.59,13.85,7.21a5.62,5.62,0,0,0,2.74.66C261.13,201.29,268.07,201.31,275,201.31Zm-247.43,0c6.9,0,13.79,0,20.69,0a5.52,5.52,0,0,0,2.74-.66c1.79-1,3.61-1.87,5.42-2.81l14.1-7.34,9.83-5.09.13-.06c.19-.12.49-.17.46-.44s-.36-.22-.57-.24-.68,0-1,0H51.89a5.77,5.77,0,0,0-2,.28L35.75,190l-25.48,9.12-4.44,1.6c-.18.07-.35.2-.28.39s.22.16.35.17c.43,0,.87,0,1.3,0Zm203.47,0h17.07c.29,0,.58,0,.87,0a.27.27,0,0,0,.19-.16.25.25,0,0,0-.07-.23c-.24-.15-.49-.28-.74-.42L233,192.26c-4.42-2.36-8.86-4.7-13.27-7.07a4.67,4.67,0,0,0-2.32-.58q-11.07,0-22.13,0c-.39,0-.77,0-1.16,0-.13,0-.32,0-.31.21a.56.56,0,0,0,.13.35c.23.23.48.44.73.65l16.94,14.53c.21.18.43.35.64.54a1.5,1.5,0,0,0,1,.38h17.79Zm-79.92,0h10.57c2.36,0,4.73,0,7.09,0,.89,0,1-.16.73-1-.05-.17-.12-.34-.18-.51l-3.39-9.5c-.57-1.61-1.13-3.21-1.71-4.82-.28-.77-.36-.81-1.24-.84h-23.3c-1.28,0-1.28,0-1.7,1.19l-4.39,12.43c-.28.8-.57,1.6-.83,2.41a.43.43,0,0,0,.41.57c.43,0,.87,0,1.3,0Zm39.94,0h16.79c.39,0,.77,0,1.16,0a.3.3,0,0,0,.23-.49c-.26-.26-.53-.52-.8-.77L203,195.07c-3.6-3.22-7.21-6.44-10.79-9.68a2.46,2.46,0,0,0-2-.77,3.7,3.7,0,0,1-.43,0H168c-.39,0-.77,0-1.16,0-.69,0-.83.22-.63.85.05.17.12.34.19.51l5.71,14c.56,1.37.45,1.29,2.07,1.29Zm-79.73,0h16.79c1.71,0,1.57.2,2.25-1.45q2.36-5.74,4.69-11.49c.41-1,.81-2,1.19-3,.18-.46,0-.65-.53-.68-.34,0-.68,0-1,0h-23a1.43,1.43,0,0,0-1,.39c-.17.16-.35.31-.52.46L93.85,200.06c-.28.25-.53.51-.79.78s0,.38.2.39c.43,0,.87,0,1.3,0Zm-40,0c5.74,0,11.48,0,17.22,0a2.82,2.82,0,0,0,2.07-.72c1-.94,2.11-1.83,3.17-2.73l7.64-6.53q3.39-2.91,6.76-5.83c.19-.17.52-.32.35-.65s-.41-.18-.64-.19H91.41c-2.22,0-4.44,0-6.66,0a3.58,3.58,0,0,0-1.78.44c-3,1.63-6.1,3.23-9.15,4.86l-13.89,7.43L54,200.46a5.21,5.21,0,0,0-.6.37.24.24,0,0,0-.07.22.26.26,0,0,0,.18.16c.43,0,.86.05,1.29.05ZM28.45,183.68h4.63c5.31,0,10.61,0,15.91,0a8.53,8.53,0,0,0,3.24-.51c1.33-.52,2.7-.95,4.06-1.42l17.85-6.23,6.35-2.22a5,5,0,0,0,.65-.28.19.19,0,0,0-.07-.37c-.33,0-.67,0-1,0H51.72a7.3,7.3,0,0,0-1.72.19l-9.52,2.25L24.09,179,7,183a5.57,5.57,0,0,0-.69.21.27.27,0,0,0-.15.2.23.23,0,0,0,.15.18c.48,0,1,.07,1.44.07Zm245.47,0h21.28c.33,0,.87.1.91-.19s-.53-.4-.86-.48l-23.82-5.68q-9.25-2.2-18.5-4.41a10.84,10.84,0,0,0-2.57-.31H222.71l-1.3,0a.49.49,0,0,0-.26.08s-.08.17,0,.21a1.52,1.52,0,0,0,.74.36L232,176.82q9.27,3.23,18.54,6.48a7,7,0,0,0,2.4.39Q263.42,183.67,273.91,183.68ZM296,171.83a6.72,6.72,0,0,0-2.1-.49l-12.55-2-17-2.71c-3.14-.5-6.29-.93-9.41-1.47a32.32,32.32,0,0,0-5.59-.57q-13.24,0-26.48,0a6.5,6.5,0,0,0-.72,0c-.11,0-.3,0-.26.2a.3.3,0,0,0,.17.18c.27.09.55.17.83.23l11.36,2.64q8.13,1.89,16.26,3.79a9.94,9.94,0,0,0,2.28.27h41.82A2.91,2.91,0,0,0,296,171.83ZM69.2,183.68c4.39,0,8.78,0,13.16,0a4.78,4.78,0,0,0,2.33-.55q9.25-4.82,18.53-9.61a9.64,9.64,0,0,0,.85-.5.24.24,0,0,0,.06-.23.27.27,0,0,0-.2-.15c-.43,0-.86,0-1.3,0-5.55,0-11.09,0-16.64,0a9,9,0,0,0-3.23.56c-3.67,1.35-7.36,2.66-11,4l-16,5.73c-.34.12-.95.14-.87.53s.71.27,1.09.27C60.33,183.69,64.77,183.68,69.2,183.68Zm164,0h13.17a3.47,3.47,0,0,0,1.28-.09s.11-.05.11-.08,0-.21,0-.24a6.43,6.43,0,0,0-.78-.34l-10-3.57q-8.84-3.16-17.67-6.32a7.24,7.24,0,0,0-2.53-.44c-5.69,0-11.38,0-17.08,0l-1.16,0a.44.44,0,0,0-.26.09c-.05,0-.08.2-.06.22a8.88,8.88,0,0,0,.84.51q9.33,4.84,18.66,9.68a4.79,4.79,0,0,0,2.33.56C224.42,183.67,228.81,183.68,233.2,183.68ZM6.43,171.92c.6,0,.89.09,1.17.08,1.3,0,2.6,0,3.9,0h38a11.08,11.08,0,0,0,2.57-.29c6.3-1.49,12.62-2.94,18.93-4.4l8.41-2a7.07,7.07,0,0,0,.82-.25.26.26,0,0,0,.13-.21c0-.05-.12-.14-.18-.15-.38,0-.77,0-1.15,0-8,0-15.91,0-23.87,0a44.61,44.61,0,0,0-8,.58c-5.25.94-10.54,1.7-15.81,2.53L8.11,171.39A3.94,3.94,0,0,0,6.43,171.92Zm118.28,11.8h10.55l1.16,0a.68.68,0,0,0,.66-.43c.14-.33.3-.65.44-1q1.65-4.05,3.29-8.11c.63-1.55.61-1.57-1.12-1.57-4.58,0-9.15,0-13.73,0a3.32,3.32,0,0,0-2.44.9c-3.43,3.11-6.9,6.2-10.35,9.29a6,6,0,0,0-.49.49.27.27,0,0,0,.18.41c.43,0,.86,0,1.3,0Zm26.44,0h11.43c.85,0,1-.16.74-.87-.3-.89-.63-1.77-.95-2.66-.79-2.19-1.6-4.38-2.35-6.58-.33-1-.57-1-1.56-1H144.14c-.29,0-.58,0-.87,0a.73.73,0,0,0-.67.43c-.11.24-.2.5-.29.75l-3.12,8.74c-.4,1.12-.36,1.17,1,1.17Zm26.48,0h10.71c.38,0,.77,0,1.15-.05a.28.28,0,0,0,.17-.42c-.29-.3-.58-.59-.89-.87-3.28-2.95-6.59-5.87-9.84-8.85a3.42,3.42,0,0,0-2.56-.94c-4.53,0-9.07,0-13.6,0-1.78,0-1.79,0-1.2,1.51,1,2.5,2,5,3,7.5.2.5.43,1,.6,1.5a.88.88,0,0,0,1,.61h11.43Zm26.46,0c3.33,0,6.66,0,10,0,.61,0,1.32.31,1.86-.26-.3-.56-1-.64-1.46-1a2.48,2.48,0,0,0-.38-.2l-8.9-4.73-8-4.28a4.41,4.41,0,0,0-2.18-.6c-4.78,0-9.55,0-14.33,0a7,7,0,0,0-.86.06.19.19,0,0,0-.14.3,1.88,1.88,0,0,0,.39.39c3.7,3.18,7.42,6.36,11.11,9.56a3.07,3.07,0,0,0,2.21.77C197,183.66,200.52,183.68,204.09,183.68Zm-105.79,0h5.2c1.88,0,3.76,0,5.64,0a2.66,2.66,0,0,0,2-.76c.6-.57,1.27-1.09,1.9-1.63l9-7.71a3.79,3.79,0,0,0,.57-.6.19.19,0,0,0-.14-.3,5.64,5.64,0,0,0-.86-.07c-4.77,0-9.54,0-14.31,0a3.85,3.85,0,0,0-1.91.48c-2.07,1.13-4.16,2.23-6.25,3.34l-11,5.85c-.54.29-1.08.58-1.61.89a.36.36,0,0,0-.16.32c0,.08.22.16.34.17.43,0,.87,0,1.3,0ZM247.4,172a1.41,1.41,0,0,0-1.1-.63l-8.82-2.09-18.33-4.4a10.88,10.88,0,0,0-2.58-.25l-17.07,0c-.36,0-1-.14-1,.17-.11.5.56.49.92.62,5.85,2.06,11.72,4.08,17.57,6.15a7.4,7.4,0,0,0,2.53.42h27.9ZM69.62,172h0c4.48,0,9,0,13.45,0a6.87,6.87,0,0,0,2.39-.42c3.37-1.2,6.76-2.37,10.14-3.55l7.57-2.64a1.46,1.46,0,0,0,.73-.4s0-.22,0-.23a2.87,2.87,0,0,0-.7-.12H85.38a8.77,8.77,0,0,0-3,.44,9,9,0,0,1-1,.27L70.09,168,56,171.4a4.48,4.48,0,0,0-.68.23c-.07,0-.11.13-.14.2s0,.14.16.14c.34,0,.67,0,1,0Zm136.13,0h8c.38,0,.77,0,1.15,0,.07,0,.14-.08.19-.14s0-.18-.08-.23c-.3-.14-.6-.29-.91-.4l-6.47-2.32c-3.59-1.29-7.18-2.57-10.77-3.87a6.41,6.41,0,0,0-2.25-.39H184.44c-.29,0-.58,0-.87,0s-.52,0-.56.27.17.3.33.39l.38.19c3.86,2,7.74,4,11.58,6a4.14,4.14,0,0,0,2.05.49C200.15,172,202.95,172,205.74,172ZM96.52,172h0c2.89,0,5.79,0,8.68,0a3.66,3.66,0,0,0,1.78-.42c3.94-2.07,7.9-4.11,11.84-6.16a4.35,4.35,0,0,0,.59-.37.24.24,0,0,0,.05-.23.28.28,0,0,0-.2-.14,5.94,5.94,0,0,0-.72,0l-10.85,0a6,6,0,0,0-2.11.4c-2.06.76-4.13,1.49-6.19,2.23L87.8,171.4a3,3,0,0,0-.49.26s0,.07,0,.11,0,.18.13.18c.38,0,.77,0,1.15,0Zm54.6,0h4.48c1,0,2,0,3,0,.62,0,.74-.17.54-.76-.68-1.94-1.4-3.88-2.06-5.82a1,1,0,0,0-1.15-.78q-4.77,0-9.54,0a1,1,0,0,0-1.13.8c-.65,1.91-1.35,3.8-2,5.7,0,.13-.1.25-.13.38a.36.36,0,0,0,.34.47c.34,0,.67,0,1,0Zm17.54,0h6.65c.38,0,.77,0,1.15-.06a.28.28,0,0,0,.16-.43q-.23-.25-.49-.49c-2.14-1.92-4.3-3.82-6.42-5.75a2.28,2.28,0,0,0-1.66-.64c-3,0-6.07,0-9.1,0a4.34,4.34,0,0,0-.57,0,.41.41,0,0,0-.38.58,5.77,5.77,0,0,0,.22.63l1.89,4.61c.14.33.27.67.42,1a.83.83,0,0,0,.77.51h7.37Zm-35.18,0c2.41,0,4.81,0,7.22,0a1.27,1.27,0,0,0,1.39-.89c.73-1.88,1.49-3.75,2.23-5.62a1.79,1.79,0,0,0,.14-.51.28.28,0,0,0-.22-.3,3.1,3.1,0,0,0-.57-.07c-3.08,0-6.16,0-9.24,0a2.44,2.44,0,0,0-1.77.72c-2,1.83-4.09,3.63-6.13,5.45a10.23,10.23,0,0,0-.76.79c-.12.13,0,.38.21.39.38,0,.77,0,1.15,0Zm52.8,0h6.36c.38,0,.77,0,1.15-.05a.27.27,0,0,0,.18-.16.25.25,0,0,0-.06-.23c-.31-.21-.63-.41-1-.58L181.82,165a3.36,3.36,0,0,0-1.65-.4l-8.82,0a6.24,6.24,0,0,0-.72,0,.37.37,0,0,0-.23.12c-.11.13,0,.25.09.35a1.33,1.33,0,0,0,.2.19c2.36,2,4.73,4,7.08,6.09a2.41,2.41,0,0,0,1.7.58C181.74,172,184,172,186.27,172ZM116,172c2.17,0,4.34,0,6.51,0a3.32,3.32,0,0,0,2.45-.88c2.13-1.87,4.29-3.71,6.44-5.56a6.26,6.26,0,0,0,.49-.49.25.25,0,0,0-.16-.4,2.86,2.86,0,0,0-.43,0l-9.26,0a3,3,0,0,0-1.5.42c-.7.39-1.42.76-2.13,1.13l-9.64,5.14a1.85,1.85,0,0,0-.36.22.29.29,0,0,0-.09.23.25.25,0,0,0,.16.18c.33,0,.67.05,1,.05Z"/><g class="cls-12"><rect class="cls-4" y="159.66" width="302" height="68"/><g class="cls-13"><rect class="cls-14" x="-5.03" y="154.66" width="312.07" height="77.34"/></g></g></g><g class="cls-15"><path class="cls-16" d="M109.83,102V77l15.83-10,21.67,14.26,19.09-7.76,7.06,9A18.36,18.36,0,0,1,189,80V40.5a1,1,0,0,0-1-1H104.17a1,1,0,0,0-1,1v68a1,1,0,0,0,1,1h65.76a18.26,18.26,0,0,1-3.86-7.5Zm65.42-51.67a7.92,7.92,0,1,1-7.92,7.92A7.92,7.92,0,0,1,175.25,50.33Z"/><path class="cls-17" d="M184.17,82.5a15,15,0,1,0,15,15A15,15,0,0,0,184.17,82.5Zm0,26a2,2,0,1,1,2-2A2,2,0,0,1,184.17,108.5Zm2-7a2,2,0,0,1-4,0v-12a2,2,0,0,1,4,0Z"/></g></svg>